<?xml version="1.0" standalone="no"?>
<!DOCTYPE svg PUBLIC "-//W3C//DTD SVG 20010904//EN"
 "http://www.w3.org/TR/2001/REC-SVG-20010904/DTD/svg10.dtd">
<svg version="1.0" xmlns="http://www.w3.org/2000/svg"
 width="3324.000000pt" height="1280.000000pt" viewBox="0 0 3324.000000 1280.000000"
 preserveAspectRatio="xMidYMid meet">

<g transform="translate(0.000000,1280.000000) scale(0.100000,-0.100000)"
fill="#000000" stroke="none">
<path d="M8227 10990 l-238 -5 97 -55 c107 -60 268 -170 394 -268 84 -66 311
-285 372 -359 l34 -42 345 -2 c381 -3 542 -10 699 -34 1063 -162 2001 -782
2564 -1694 72 -117 213 -397 259 -516 144 -369 207 -647 248 -1079 23 -252 -5
-703 -61 -971 -85 -410 -277 -874 -505 -1220 -192 -291 -394 -524 -644 -745
-586 -517 -1307 -833 -2077 -909 -83 -9 -1337 -14 -2676 -11 l-168 0 0 935 0
935 -375 0 -375 0 2 -1302 3 -1303 1695 -1 c1660 -1 1867 1 2060 25 382 48
627 106 971 229 265 96 473 192 711 328 353 202 625 411 919 704 339 339 588
677 799 1084 334 647 485 1264 484 1991 0 687 -144 1289 -453 1905 -208 413
-425 720 -731 1034 -227 233 -414 393 -645 552 -429 295 -851 498 -1310 629
-315 90 -436 114 -740 145 -176 19 -273 21 -810 23 -335 1 -717 0 -848 -3z"/>
<path d="M6110 10978 c-431 -35 -938 -162 -1337 -333 -128 -54 -464 -225 -493
-250 -8 -7 -55 -36 -105 -66 -89 -53 -326 -220 -457 -322 -271 -211 -517 -462
-809 -827 -103 -128 -337 -507 -438 -707 -52 -104 -128 -273 -151 -338 -175
-483 -220 -646 -284 -1050 -48 -298 -51 -367 -48 -1195 2 -426 5 -776 6 -778
2 -1 36 41 77 95 175 232 417 469 624 612 l50 34 1 406 c0 427 9 549 55 810
71 403 236 868 419 1186 143 249 142 248 305 465 305 407 714 784 1085 1000
41 24 82 49 90 56 20 16 315 163 405 202 268 115 510 186 825 241 235 41 235
41 153 35 -60 -3 -73 -2 -73 11 0 8 -7 15 -15 15 -9 0 -12 6 -9 15 4 8 11 12
18 8 6 -4 5 1 -3 10 -7 9 -11 23 -8 31 4 10 1 13 -8 9 -11 -4 -12 -10 -5 -23
12 -22 -7 -41 -20 -21 -4 7 -16 11 -26 9 -15 -2 -19 3 -19 30 -1 17 2 32 5 32
4 0 11 15 17 34 9 28 8 33 -6 32 -9 0 -16 7 -16 16 0 9 -4 19 -8 22 -4 3 -5 3
-2 -1 3 -3 0 -12 -7 -20 -11 -14 -4 -28 15 -28 21 0 17 -23 -7 -39 -17 -10
-23 -22 -20 -34 5 -14 4 -14 -6 2 -10 14 -9 20 1 28 11 7 9 9 -6 7 -41 -3 -46
0 -36 19 7 13 6 23 -1 30 -9 9 -6 12 13 12 18 0 20 3 10 9 -12 8 -12 12 2 26
15 15 15 35 1 35 -3 0 -2 -4 1 -10 3 -5 2 -10 -4 -10 -5 0 -12 -9 -16 -19 -3
-11 -15 -23 -26 -26 -24 -8 -25 -27 -1 -23 11 2 16 -2 13 -12 -2 -8 -4 -21 -4
-27 0 -7 -4 -13 -8 -13 -4 0 -10 6 -12 13 -4 9 -6 9 -6 -1 -1 -7 -6 -10 -13
-6 -7 4 -8 3 -4 -5 4 -6 11 -9 16 -6 5 3 8 -3 7 -14 -2 -34 -32 -17 -33 20 -1
19 -3 39 -4 44 -1 6 -1 18 0 29 1 11 -3 15 -9 12 -6 -4 -11 -13 -11 -21 0 -8
-5 -17 -12 -21 -8 -5 -9 -2 -5 9 3 10 2 17 -3 17 -6 0 -10 -4 -10 -8 0 -5 -7
-9 -15 -9 -8 0 -14 7 -13 16 2 9 -3 15 -9 13 -7 -1 -13 5 -13 13 0 8 -4 15
-10 15 -5 0 -10 7 -10 15 0 14 52 33 73 27 11 -3 8 23 -5 36 -8 8 -5 14 16 22
36 13 49 13 40 -2 -5 -7 -3 -8 5 -3 9 5 10 10 2 18 -13 13 -43 19 -35 6 3 -5
-2 -9 -11 -9 -12 0 -15 6 -10 23 5 17 4 19 -4 7 -9 -13 -11 -13 -11 2 0 11 -5
15 -15 12 -8 -4 -15 -10 -15 -16 0 -5 4 -7 9 -4 5 3 11 -3 14 -14 4 -18 3 -18
-17 -5 -13 9 -26 12 -31 8 -4 -5 -5 -2 -1 5 4 6 2 12 -4 12 -6 0 -8 6 -4 13 4
6 -3 3 -15 -8 -19 -16 -24 -17 -31 -5 -6 8 -10 20 -10 25 1 6 5 2 11 -8 10
-17 29 -15 29 4 0 6 -4 7 -10 4 -5 -3 -10 -1 -10 6 0 6 -8 9 -20 6 -11 -3 -20
0 -20 6 0 6 -3 7 -7 4 -8 -9 -34 13 -28 24 3 4 12 6 20 2 23 -8 18 1 -17 33
-18 16 -28 23 -21 15 6 -7 9 -20 6 -28 -4 -11 -9 -9 -20 7 -8 11 -11 25 -7 32
5 7 3 8 -7 2 -8 -4 -18 -9 -24 -11 -58 -13 -64 -13 -59 0 3 10 -5 13 -31 12
-22 -1 -35 2 -35 10 0 7 -7 15 -15 19 -14 5 -20 -6 -16 -28 1 -5 -5 -4 -13 4
-9 7 -16 16 -16 19 0 11 186 62 302 85 13 2 43 9 68 14 25 6 61 13 80 16 19 3
46 8 60 11 57 12 239 33 340 40 166 11 203 15 209 20 6 7 -101 4 -229 -7z
m-739 -221 c-6 -8 -8 -17 -4 -20 3 -4 1 -7 -5 -7 -20 0 -23 19 -5 29 24 14 27
13 14 -2z m93 -28 c10 16 36 -4 36 -28 0 -14 2 -14 10 -1 8 12 10 9 10 -12 0
-28 21 -50 28 -30 2 7 8 10 13 6 14 -8 11 -21 -7 -28 -17 -6 -44 15 -44 34 0
7 -7 10 -14 7 -10 -4 -13 -1 -9 9 7 20 -5 47 -18 38 -8 -5 -8 -9 1 -14 10 -6
7 -14 -10 -31 l-22 -24 12 23 c10 20 9 26 -7 37 -10 7 -22 11 -28 8 -5 -2 -1
3 10 12 18 14 20 14 26 -2 4 -12 8 -13 13 -4z m56 -101 c0 -11 -23 -5 -32 7
-14 19 -8 25 12 13 11 -7 20 -16 20 -20z m-70 12 c0 -5 -2 -10 -4 -10 -3 0 -8
5 -11 10 -3 6 -1 10 4 10 6 0 11 -4 11 -10z m130 -21 c0 -5 -4 -8 -9 -5 -5 3
-11 -9 -15 -27 -5 -25 -9 -29 -16 -17 -6 9 -6 16 0 18 6 2 10 12 10 23 0 10 7
19 15 19 8 0 15 -5 15 -11z m53 -35 c-4 -11 -9 -12 -19 -3 -18 15 -18 14 5 16
14 1 18 -3 14 -13z m42 -14 c3 -6 -1 -7 -9 -4 -18 7 -21 14 -7 14 6 0 13 -4
16 -10z m-35 -40 c0 -5 -7 -6 -17 -3 -12 5 -14 3 -8 -8 8 -12 6 -12 -8 0 -21
17 -22 16 8 19 14 1 25 -3 25 -8z m-12 -75 c-3 -3 -9 2 -12 12 -6 14 -5 15 5
6 7 -7 10 -15 7 -18z m29 3 c-3 -8 -6 -5 -6 6 -1 11 2 17 5 13 3 -3 4 -12 1
-19z m-50 -13 c0 -8 -4 -12 -9 -9 -4 3 -8 9 -8 15 0 5 4 9 8 9 5 0 9 -7 9 -15z
m47 -46 c-3 -5 -10 -7 -15 -3 -5 3 -7 10 -3 15 3 5 10 7 15 3 5 -3 7 -10 3
-15z m203 -29 c9 -14 10 -21 1 -26 -7 -4 -8 -3 -4 4 4 7 3 12 -2 12 -6 0 -12
7 -16 15 -8 22 7 18 21 -5z m-159 -55 c-3 -3 -9 2 -12 12 -6 14 -5 15 5 6 7
-7 10 -15 7 -18z m249 -24 c0 -10 -7 -17 -13 -14 -7 3 -10 11 -7 19 8 20 22
17 20 -5z m-86 -8 c13 -15 12 -15 -8 -4 -24 12 -29 21 -14 21 5 0 15 -7 22
-17z m42 -10 c-4 -10 -2 -14 4 -10 5 3 10 0 10 -8 0 -12 -4 -12 -19 2 -11 10
-15 19 -9 21 6 2 8 9 5 14 -4 7 -2 8 4 4 6 -4 8 -14 5 -23z m78 -26 c-8 -8
-11 -8 -11 0 0 6 -3 20 -7 30 -7 17 -6 17 11 0 14 -14 16 -21 7 -30z m-326
-57 c-3 -5 -12 -10 -18 -10 -7 0 -6 4 3 10 19 12 23 12 15 0z m-55 -14 c0 -2
-7 -7 -16 -10 -8 -3 -12 -2 -9 4 6 10 25 14 25 6z m-160 -50 c0 -2 -7 -7 -16
-10 -8 -3 -12 -2 -9 4 6 10 25 14 25 6z"/>
<path d="M6368 10983 c12 -2 30 -2 40 0 9 3 -1 5 -23 4 -22 0 -30 -2 -17 -4z"/>
<path d="M6443 10983 c9 -2 23 -2 30 0 6 3 -1 5 -18 5 -16 0 -22 -2 -12 -5z"/>
<path d="M6503 10983 c9 -2 23 -2 30 0 6 3 -1 5 -18 5 -16 0 -22 -2 -12 -5z"/>
<path d="M6573 10983 c15 -2 37 -2 50 0 12 2 0 4 -28 4 -27 0 -38 -2 -22 -4z"/>
<path d="M6678 10983 c7 -3 16 -2 19 1 4 3 -2 6 -13 5 -11 0 -14 -3 -6 -6z"/>
<path d="M6710 10986 c0 -2 11 -6 25 -8 13 -3 22 -1 19 3 -5 9 -44 13 -44 5z"/>
<path d="M6778 10973 c7 -3 16 -2 19 1 4 3 -2 6 -13 5 -11 0 -14 -3 -6 -6z"/>
<path d="M7080 10930 c0 -5 5 -10 11 -10 5 0 7 5 4 10 -3 6 -8 10 -11 10 -2 0
-4 -4 -4 -10z"/>
<path d="M7130 10920 c0 -6 7 -10 15 -10 8 0 15 2 15 4 0 2 -7 6 -15 10 -8 3
-15 1 -15 -4z"/>
<path d="M7200 10900 c8 -5 26 -9 40 -9 23 0 23 1 5 9 -11 5 -29 9 -40 9 -17
1 -17 -1 -5 -9z"/>
<path d="M7278 10883 c7 -3 16 -2 19 1 4 3 -2 6 -13 5 -11 0 -14 -3 -6 -6z"/>
<path d="M7360 10860 c8 -5 22 -9 30 -9 10 0 8 3 -5 9 -27 12 -43 12 -25 0z"/>
<path d="M7420 10842 c8 -5 26 -13 40 -16 17 -5 20 -4 10 2 -8 5 -26 13 -40
16 -17 5 -20 4 -10 -2z"/>
<path d="M5530 10822 c0 -4 10 -13 23 -21 22 -14 22 -14 3 8 -20 22 -26 25
-26 13z"/>
<path d="M5770 10820 c0 -5 5 -10 11 -10 5 0 7 5 4 10 -3 6 -8 10 -11 10 -2 0
-4 -4 -4 -10z"/>
<path d="M7500 10810 c8 -5 22 -9 30 -9 10 0 8 3 -5 9 -27 12 -43 12 -25 0z"/>
<path d="M5583 10788 c0 -13 1 -17 4 -10 3 6 10 9 16 5 7 -4 6 1 -2 10 -17 21
-17 21 -18 -5z"/>
<path d="M5737 10803 c-10 -10 -8 -33 2 -33 6 0 9 9 8 20 -1 23 -1 22 -10 13z"/>
<path d="M5842 10777 c-8 -9 -8 -17 0 -27 8 -13 9 -12 5 2 -3 9 -1 19 6 21 7
2 9 7 6 11 -3 4 -11 1 -17 -7z"/>
<path d="M5603 10753 c2 -12 6 -25 9 -29 4 -3 4 -12 2 -19 -3 -7 0 -16 7 -21
8 -5 10 -3 4 6 -4 7 -3 15 2 19 6 3 3 18 -9 36 -15 25 -18 27 -15 8z"/>
<path d="M7630 10760 c0 -5 5 -10 11 -10 5 0 7 5 4 10 -3 6 -8 10 -11 10 -2 0
-4 -4 -4 -10z"/>
<path d="M5640 10740 c0 -5 5 -10 11 -10 5 0 7 -4 4 -10 -3 -5 -2 -10 4 -10
19 0 19 16 0 28 -11 7 -19 8 -19 2z"/>
<path d="M7675 10740 c3 -5 11 -10 16 -10 6 0 7 5 4 10 -3 6 -11 10 -16 10 -6
0 -7 -4 -4 -10z"/>
<path d="M5690 10731 c0 -5 8 -15 18 -22 15 -12 16 -12 5 2 -7 9 -10 19 -6 22
3 4 1 7 -5 7 -7 0 -12 -4 -12 -9z"/>
<path d="M5875 10731 c-3 -5 0 -13 6 -17 7 -4 9 -3 5 4 -3 5 0 13 6 15 9 4 10
6 1 6 -6 1 -14 -3 -18 -8z"/>
<path d="M5760 10722 c0 -7 -6 -11 -12 -9 -7 1 -14 -5 -14 -13 -1 -8 -2 -19
-3 -24 0 -5 -9 -2 -18 5 -16 13 -17 12 -4 -3 7 -10 17 -15 22 -12 5 3 25 -6
45 -20 39 -26 60 -21 60 17 0 18 -1 18 -14 -2 -8 -11 -19 -21 -25 -21 -8 0 -7
4 0 11 9 9 8 15 -2 26 -8 7 -18 13 -22 12 -20 -3 -24 2 -13 16 7 9 10 18 6 22
-3 3 -6 1 -6 -5z"/>
<path d="M5810 10700 c0 -5 7 -7 15 -4 8 4 15 8 15 10 0 2 -7 4 -15 4 -8 0
-15 -4 -15 -10z"/>
<path d="M5666 10674 c-5 -14 -4 -15 9 -4 17 14 19 20 6 20 -5 0 -12 -7 -15
-16z"/>
<path d="M7830 10666 c0 -2 7 -7 16 -10 8 -3 12 -2 9 4 -6 10 -25 14 -25 6z"/>
<path d="M7885 10635 c30 -25 59 -39 51 -26 -4 6 -22 18 -39 27 -30 14 -31 14
-12 -1z"/>
<path d="M5839 10618 c-11 -8 -11 -9 3 -4 11 3 15 1 12 -8 -6 -17 23 -29 32
-14 5 7 2 8 -6 3 -10 -6 -12 -4 -7 8 7 19 -15 29 -34 15z"/>
<path d="M7950 10605 c0 -13 31 -36 41 -33 7 2 0 12 -15 21 -14 10 -26 15 -26
12z"/>
<path d="M5820 10589 c0 -6 -7 -8 -16 -5 -8 3 -12 2 -9 -4 3 -6 2 -10 -3 -10
-5 0 -9 -7 -9 -15 0 -8 6 -15 13 -15 8 0 11 6 8 15 -4 10 0 15 15 15 14 0 21
-6 21 -20 0 -17 2 -19 14 -8 8 7 11 15 7 18 -4 3 -10 13 -14 23 -7 19 -27 24
-27 6z"/>
<path d="M5897 10585 c-4 -8 -2 -17 3 -20 6 -4 10 3 10 14 0 25 -6 27 -13 6z"/>
<path d="M5746 10571 c-11 -17 -2 -61 12 -61 11 0 12 3 3 14 -8 10 -9 16 -1
21 13 8 13 35 1 35 -6 0 -12 -4 -15 -9z"/>
<path d="M8010 10560 c0 -5 5 -10 11 -10 5 0 7 5 4 10 -3 6 -8 10 -11 10 -2 0
-4 -4 -4 -10z"/>
<path d="M6000 10549 c0 -5 5 -7 10 -4 6 3 10 8 10 11 0 2 -4 4 -10 4 -5 0
-10 -5 -10 -11z"/>
<path d="M5970 10541 c0 -5 7 -12 16 -15 14 -5 15 -4 4 9 -14 17 -20 19 -20 6z"/>
<path d="M5897 10533 c-11 -10 -8 -35 3 -28 5 3 18 -3 30 -15 11 -11 25 -20
30 -20 6 0 10 -4 10 -10 0 -5 7 -10 16 -10 10 0 6 8 -13 25 -15 13 -22 25 -15
25 17 0 15 17 -4 24 -9 4 -23 1 -30 -5 -13 -10 -18 -6 -15 14 1 9 -4 9 -12 0z"/>
<path d="M5699 10515 c-1 -8 -2 -21 -3 -27 -1 -7 11 -13 27 -14 29 -1 34 5 15
24 -9 9 -15 7 -25 -6 -11 -15 -12 -13 -3 11 6 17 6 27 0 27 -6 0 -11 -7 -11
-15z"/>
<path d="M5776 10505 c-3 -8 -1 -15 4 -15 13 0 22 18 11 24 -5 3 -11 -1 -15
-9z"/>
<path d="M5816 10495 c4 -8 8 -15 10 -15 2 0 4 7 4 15 0 8 -4 15 -10 15 -5 0
-7 -7 -4 -15z"/>
<path d="M5998 10470 c20 -20 25 -19 17 2 -3 8 -12 15 -20 15 -12 0 -11 -4 3
-17z"/>
<path d="M5780 10470 c0 -5 4 -10 9 -10 6 0 13 5 16 10 3 6 -1 10 -9 10 -9 0
-16 -4 -16 -10z"/>
<path d="M6090 10466 c0 -2 8 -10 18 -17 15 -13 16 -12 3 4 -13 16 -21 21 -21
13z"/>
<path d="M5996 10434 c5 -2 9 -18 8 -35 -2 -32 12 -35 30 -6 8 13 6 20 -9 31
-11 9 -24 15 -30 15 -6 0 -6 -2 1 -5z"/>
<path d="M8208 10420 c12 -11 26 -20 33 -20 6 0 0 9 -14 20 -14 11 -29 20 -33
20 -4 0 2 -9 14 -20z"/>
<path d="M5785 10420 c-3 -6 1 -7 9 -4 18 7 21 14 7 14 -6 0 -13 -4 -16 -10z"/>
<path d="M6061 10404 c0 -11 3 -14 6 -6 3 7 2 16 -1 19 -3 4 -6 -2 -5 -13z"/>
<path d="M5967 10403 c-12 -12 -7 -22 8 -17 8 4 15 10 15 15 0 11 -14 12 -23
2z"/>
<path d="M5930 10365 c0 -17 9 -19 28 -6 11 7 10 10 -3 15 -23 9 -25 8 -25 -9z"/>
<path d="M6175 10370 c3 -5 8 -10 11 -10 2 0 4 5 4 10 0 6 -5 10 -11 10 -5 0
-7 -4 -4 -10z"/>
<path d="M6076 10298 c3 -5 10 -6 15 -3 13 9 11 12 -6 12 -8 0 -12 -4 -9 -9z"/>
<path d="M6025 10280 c3 -5 8 -10 11 -10 2 0 4 5 4 10 0 6 -5 10 -11 10 -5 0
-7 -4 -4 -10z"/>
<path d="M6273 10276 c-62 -4 -113 -11 -113 -15 0 -3 37 -3 83 1 45 3 151 7
236 7 85 1 152 4 148 7 -9 10 -230 10 -354 0z"/>
<path d="M6780 10259 c25 -6 94 -21 153 -35 60 -14 112 -23 115 -20 3 3 -2 6
-11 6 -9 0 -17 4 -17 8 0 5 -60 19 -132 31 -134 22 -191 27 -108 10z"/>
<path d="M7063 10210 c-1 -11 10 -21 33 -28 20 -6 34 -6 34 -1 0 5 -14 12 -31
16 -18 3 -26 9 -19 13 8 5 8 9 -2 13 -8 3 -14 -2 -15 -13z"/>
<path d="M7144 10172 c4 -6 23 -14 44 -18 20 -4 42 -11 49 -16 14 -11 73 -29
73 -22 0 3 -7 12 -15 20 -8 9 -15 13 -15 10 0 -2 -15 0 -32 5 -18 6 -40 12
-48 14 -8 2 -26 7 -39 11 -17 5 -22 4 -17 -4z"/>
<path d="M7320 10110 c0 -5 5 -10 11 -10 5 0 7 5 4 10 -3 6 -8 10 -11 10 -2 0
-4 -4 -4 -10z"/>
<path d="M7375 10080 c3 -5 8 -10 11 -10 2 0 4 5 4 10 0 6 -5 10 -11 10 -5 0
-7 -4 -4 -10z"/>
<path d="M8590 10085 c0 -9 40 -58 94 -117 22 -24 37 -38 35 -31 -5 15 -129
156 -129 148z"/>
<path d="M7408 10063 c7 -3 16 -2 19 1 4 3 -2 6 -13 5 -11 0 -14 -3 -6 -6z"/>
<path d="M7510 10010 c20 -13 33 -13 25 0 -3 6 -14 10 -23 10 -15 0 -15 -2 -2
-10z"/>
<path d="M7574 9975 c36 -19 45 -19 20 0 -10 8 -26 14 -34 15 -8 0 -2 -7 14
-15z"/>
<path d="M7650 9925 c19 -14 36 -25 39 -25 3 0 -6 11 -21 25 -15 14 -33 25
-40 25 -6 0 3 -11 22 -25z"/>
<path d="M8742 9900 c15 -29 38 -55 38 -43 0 4 -12 22 -26 38 -21 25 -23 26
-12 5z"/>
<path d="M7700 9893 c0 -4 28 -28 62 -53 34 -24 86 -67 117 -96 44 -40 60 -50
76 -43 17 6 17 8 2 8 -15 1 -106 68 -148 110 -9 9 -26 23 -39 31 -12 8 -33 23
-46 33 -13 10 -24 15 -24 10z"/>
<path d="M15495 8605 l0 -1275 153 -1 c191 0 255 0 337 0 l65 1 0 409 0 410
383 3 c500 6 595 23 820 148 266 147 408 401 407 728 -1 135 -19 236 -60 337
-116 280 -350 447 -710 504 -40 7 -317 11 -730 11 l-665 0 0 -1275z m1320 803
c181 -54 281 -175 292 -354 12 -175 -71 -316 -225 -386 -85 -38 -165 -47 -504
-52 l-328 -5 0 410 0 411 358 -5 c276 -3 368 -8 407 -19z"/>
<path d="M18566 9871 c-3 -4 -25 -57 -50 -117 -24 -60 -80 -194 -123 -299 -44
-104 -133 -318 -198 -475 -183 -444 -213 -515 -280 -670 -34 -80 -95 -224
-135 -320 -39 -96 -109 -263 -154 -370 -93 -218 -118 -281 -114 -285 2 -2 129
-5 282 -7 l280 -3 110 275 c61 152 114 281 119 287 5 9 152 11 575 10 l567 -2
102 -255 c56 -140 109 -269 117 -287 l15 -32 288 6 c158 3 289 6 290 7 1 1
-25 65 -58 141 -100 232 -280 655 -394 925 -59 140 -117 278 -130 306 -13 28
-62 146 -109 262 -82 200 -272 653 -301 717 -8 17 -29 66 -48 110 l-33 80
-306 3 c-171 1 -309 -2 -312 -7z m321 -528 c8 -26 54 -145 128 -338 100 -257
245 -644 245 -653 0 -4 -175 -8 -390 -8 -214 0 -390 1 -390 3 0 2 151 394 185
478 29 71 124 324 168 447 32 89 43 102 54 71z"/>
<path d="M20515 8604 l5 -1275 910 -3 910 -4 0 234 0 234 -635 0 -635 0 0
1045 0 1045 -280 0 -279 0 4 -1276z"/>
<path d="M22668 9708 c-2 -95 -3 -670 -3 -1277 l0 -1103 258 -3 c141 -2 257 0
257 3 0 4 0 391 0 860 0 468 3 852 5 852 7 0 72 -132 160 -325 88 -195 175
-382 233 -505 23 -47 90 -191 151 -320 l110 -235 224 -3 225 -2 15 37 c25 64
301 656 439 943 41 85 101 214 134 287 32 73 62 133 67 133 4 0 7 -387 7 -860
l0 -860 178 -1 c97 0 218 -1 267 -2 l90 -2 3 1278 2 1277 -336 0 -335 0 -76
-157 c-41 -87 -88 -185 -103 -218 -67 -145 -112 -240 -179 -378 -39 -82 -71
-151 -71 -153 0 -5 -62 -136 -180 -381 -54 -111 -106 -220 -116 -242 -16 -38
-34 -54 -34 -32 0 5 -59 132 -131 283 -158 330 -171 358 -225 474 -23 50 -56
120 -74 155 -18 35 -73 150 -122 254 -50 105 -112 236 -139 293 l-49 102 -324
0 -325 0 -3 -172z"/>
<path d="M25993 8605 l-1 -1275 101 -2 c56 0 492 -2 969 -2 l868 -1 0 233 0
232 -690 0 -690 0 0 310 0 310 610 0 610 0 -1 220 -1 220 -612 2 -611 3 1 285
1 285 671 3 672 2 0 225 0 225 -948 0 -947 0 -2 -1275z"/>
<path d="M28320 8605 l0 -1275 178 -1 c251 -1 271 -1 325 0 l47 1 0 450 0 450
268 0 267 0 65 -111 c36 -61 157 -264 270 -451 l205 -340 300 -1 c165 0 302 3
304 7 2 4 -130 231 -293 503 -164 272 -296 496 -294 497 2 1 43 21 91 45 191
95 340 282 384 482 21 94 23 300 4 394 -54 268 -260 486 -540 570 -174 52
-227 55 -930 55 l-651 0 0 -1275z m1266 814 c102 -14 172 -46 228 -106 63 -66
89 -136 89 -238 0 -183 -110 -317 -300 -365 -68 -18 -112 -20 -405 -20 l-328
0 0 363 c0 200 3 367 7 370 11 11 626 8 709 -4z"/>
<path d="M7988 9703 c7 -3 16 -2 19 1 4 3 -2 6 -13 5 -11 0 -14 -3 -6 -6z"/>
<path d="M8028 9703 c7 -3 16 -2 19 1 4 3 -2 6 -13 5 -11 0 -14 -3 -6 -6z"/>
<path d="M8302 9703 c92 -2 245 -2 340 0 95 1 20 3 -167 3 -187 0 -265 -2
-173 -3z"/>
<path d="M6625 9339 c-187 -4 -358 -10 -380 -13 -22 -4 -85 -14 -140 -23 -399
-61 -862 -261 -1214 -522 -498 -371 -866 -870 -1063 -1441 -50 -146 -125 -452
-143 -585 -14 -103 -25 -249 -25 -338 l0 -99 28 6 c158 32 426 64 614 72 l137
7 5 51 c3 28 8 90 11 137 15 248 109 569 239 814 123 232 230 380 406 556 195
196 383 329 627 446 169 81 300 124 478 160 l140 27 740 6 c407 3 1151 5 1653
5 502 0 898 3 880 7 -18 5 -125 9 -238 11 -113 2 -211 6 -217 10 -7 4 -11 13
-9 20 1 7 1 9 -1 5 -3 -5 -9 -8 -14 -8 -5 0 -4 9 3 21 11 18 10 23 -9 39 -13
10 -23 25 -23 34 0 10 -6 13 -16 9 -12 -4 -13 -7 -3 -14 8 -4 10 -11 6 -15 -3
-4 -13 -1 -22 6 -9 7 -18 10 -22 6 -3 -3 -1 -6 6 -6 7 0 10 -4 6 -9 -8 -14 14
-24 28 -12 10 7 13 3 12 -19 0 -16 -5 -33 -9 -37 -5 -5 -6 -2 -1 6 6 11 4 13
-7 8 -18 -6 -52 25 -41 38 5 4 3 5 -3 2 -7 -4 -24 -1 -39 7 -21 11 -24 16 -12
23 8 4 20 19 27 33 10 21 10 23 -1 13 -7 -7 -23 -13 -36 -13 -13 0 -23 -4 -23
-10 0 -5 8 -7 18 -4 14 5 15 4 2 -5 -15 -10 -17 -14 -19 -53 l-1 -21 -18 21
c-15 17 -26 20 -54 16 -22 -4 -38 -2 -43 5 -5 8 2 10 22 6 15 -3 22 -2 16 1
-7 3 -13 10 -13 15 0 6 4 7 10 4 6 -3 7 1 4 10 -6 14 -8 14 -25 -1 -11 -10
-22 -14 -27 -9 -4 4 -1 10 6 12 6 3 12 9 12 14 0 6 -4 7 -10 4 -12 -8 -13 5 0
25 8 13 10 12 15 -1 3 -9 13 -16 21 -16 11 0 9 6 -8 22 -13 13 -26 20 -30 18
-5 -2 -8 -2 -8 1 0 3 12 12 28 21 l27 16 -30 -6 c-16 -4 -31 -11 -33 -16 -6
-14 -19 -11 -19 5 0 8 17 19 39 24 31 8 40 7 47 -6 6 -11 4 -20 -7 -30 -15
-11 -14 -12 5 -2 26 12 26 28 -1 53 -10 9 -14 17 -8 17 7 0 12 5 12 11 0 5 -4
7 -10 4 -5 -3 -10 3 -10 14 0 15 -4 19 -17 14 -10 -4 -14 -2 -10 4 10 16 -30
52 -53 48 -11 -2 -20 1 -20 7 0 6 -3 8 -7 4 -15 -14 -7 -42 19 -71 l28 -30 0
27 c0 15 5 30 12 34 6 4 8 3 4 -4 -3 -6 -2 -13 4 -17 5 -3 10 -11 10 -16 0 -6
-4 -7 -10 -4 -5 3 -10 2 -10 -3 0 -6 7 -12 15 -16 8 -3 15 0 15 6 0 6 2 9 5 6
11 -10 -7 -39 -19 -30 -6 5 -20 11 -31 14 -16 4 -21 0 -23 -16 -1 -17 1 -18 8
-6 5 8 10 11 10 5 0 -5 -5 -17 -10 -25 -6 -9 -10 -10 -10 -3 0 6 -7 19 -16 27
-8 9 -11 16 -5 16 16 0 13 36 -4 50 -13 11 -18 11 -28 1 -9 -10 -8 -12 8 -9
12 2 21 -3 23 -14 5 -26 -35 -23 -43 2 -8 24 1 40 21 40 8 0 14 5 14 11 0 6
-9 8 -22 4 -19 -5 -19 -3 4 10 46 26 51 97 5 89 -21 -4 -21 -4 -2 5 28 14 35
13 35 -3 0 -8 5 -16 10 -18 6 -2 12 -14 15 -27 4 -24 25 -45 34 -35 3 3 -1 9
-9 14 -13 8 -13 11 -1 22 8 7 11 8 8 2 -4 -7 0 -15 9 -18 13 -5 15 -2 9 11 -4
10 -10 29 -13 43 -2 14 -8 30 -13 35 -5 7 4 9 28 7 23 -3 31 -7 22 -13 -7 -4
-17 -5 -21 -3 -4 3 -8 -4 -8 -16 l0 -21 30 23 c17 12 30 26 30 30 0 5 5 6 10
3 7 -4 6 -14 -1 -28 -9 -20 -9 -21 4 -4 12 14 16 15 21 5 5 -10 7 -10 12 -1 8
17 6 28 -6 29 -5 1 -14 2 -20 3 -5 0 -10 6 -10 12 0 5 6 7 13 3 8 -5 8 -2 -2
9 -14 18 -22 22 -20 10 3 -19 -2 -33 -12 -33 -6 0 -9 7 -6 15 4 8 1 17 -5 21
-7 5 -8 2 -3 -6 6 -10 4 -12 -10 -6 -15 5 -16 4 -5 -9 10 -13 9 -15 -8 -15
-15 0 -20 6 -19 20 1 17 26 28 40 18 2 -2 10 2 18 8 8 6 26 14 42 18 27 6 31
2 28 -34 0 -10 1 -11 5 -2 3 6 10 9 16 6 6 -4 6 2 -1 14 -18 34 -13 47 11 26
12 -10 18 -13 14 -6 -9 15 6 16 20 2 7 -7 11 -6 11 4 0 8 -5 14 -11 13 -6 -1
-10 4 -8 11 2 10 -4 11 -19 7 -21 -7 -39 7 -39 30 1 6 5 2 11 -7 13 -23 33
-24 25 -2 -5 14 -4 15 9 4 13 -11 18 -10 30 6 15 19 15 18 33 -3 21 -24 36
-19 45 17 5 21 4 22 -6 10 -16 -21 -43 -19 -39 3 3 20 -14 23 -21 5 -4 -9 -6
-8 -7 2 0 9 -6 6 -14 -10 l-14 -25 1 28 2 27 165 2 c243 2 240 2 240 10 0 4
-539 8 -1197 9 -659 0 -1211 1 -1228 2 -16 1 -183 -1 -370 -4z m1859 -27 c5
-8 -154 -5 -163 3 -2 3 32 5 77 5 44 0 83 -3 86 -8z m460 0 c-6 -4 -14 -14
-17 -22 -4 -10 -6 -8 -6 8 -1 15 5 22 17 22 10 0 13 -3 6 -8z m51 -2 c-3 -5
-12 -7 -20 -3 -21 7 -19 13 6 13 11 0 18 -4 14 -10z m-238 -58 c11 9 18 7 31
-7 16 -16 16 -17 -5 -6 -18 9 -22 8 -25 -5 -2 -13 -7 -12 -23 7 -11 13 -13 18
-5 12 10 -9 17 -10 27 -1z m84 -31 c-7 -13 -8 -22 -1 -26 5 -3 10 3 10 14 0
12 5 21 11 21 5 0 8 4 4 9 -3 5 0 13 6 17 7 4 9 3 5 -4 -3 -6 -2 -13 3 -17 6
-3 8 -12 5 -20 -4 -8 -10 -13 -14 -10 -4 3 -11 -2 -14 -11 -3 -8 -10 -12 -16
-9 -9 6 -15 -8 -11 -29 1 -5 -5 -6 -14 -2 -9 3 -20 6 -24 6 -4 0 -7 10 -6 23
1 12 -3 26 -9 30 -7 6 -6 7 3 5 8 -2 15 -12 17 -22 3 -25 7 -26 22 -10 7 8 8
14 2 14 -5 0 -10 8 -10 18 0 14 2 15 10 2 7 -10 10 -11 11 -2 1 11 3 21 9 40
1 4 4 2 6 -5 3 -7 0 -21 -5 -32z m104 30 c3 -5 2 -12 -3 -15 -5 -3 -9 1 -9 9
0 17 3 19 12 6z m-244 -90 c7 11 9 10 9 -3 0 -22 -8 -23 -32 -1 -13 12 -18 13
-18 3 0 -7 -2 -11 -5 -8 -3 3 -3 13 1 22 6 15 8 15 22 -5 11 -17 16 -18 23 -8z
m33 14 c3 -8 1 -15 -4 -15 -6 0 -10 7 -10 15 0 8 2 15 4 15 2 0 6 -7 10 -15z
m36 -5 c0 -11 7 -23 15 -26 10 -4 13 -13 9 -26 -4 -13 -2 -18 4 -14 5 3 13 -1
16 -10 10 -25 6 -41 -5 -21 -6 9 -14 15 -18 12 -5 -2 -8 6 -7 18 1 21 -15 47
-29 47 -4 0 -5 -7 -2 -14 4 -10 1 -13 -9 -9 -19 7 -18 19 2 27 9 4 14 13 10
21 -3 8 -1 15 4 15 6 0 10 -9 10 -20z m-143 -22 c2 -17 0 -19 -7 -8 -5 8 -6
18 -4 22 8 12 10 10 11 -14z m126 -99 c-6 -6 -9 -18 -6 -25 3 -8 0 -14 -6 -14
-6 0 -11 6 -11 13 0 13 19 37 29 37 3 0 0 -5 -6 -11z m-47 -34 c-1 -8 -8 -21
-16 -28 -7 -6 -11 -7 -8 -2 3 6 8 18 11 28 8 21 16 23 13 2z m97 -54 c-6 -33
-13 -40 -13 -13 0 12 -5 22 -11 22 -5 0 -8 4 -5 8 3 5 12 9 20 9 10 0 13 -8 9
-26z m27 -81 c0 -5 -4 -10 -10 -10 -5 0 -10 5 -10 10 0 6 5 10 10 10 6 0 10
-4 10 -10z m-8 -87 c-6 -3 -10 -9 -7 -13 3 -5 1 -11 -4 -14 -5 -4 -8 2 -6 11
2 10 4 25 4 33 1 12 3 12 14 1 10 -11 9 -14 -1 -18z m183 -93 c-8 -14 36 -60
58 -61 19 -1 19 -2 4 -6 -12 -3 -30 5 -46 21 -17 16 -31 22 -37 17 -5 -6 -10
1 -11 18 -2 24 1 28 17 24 11 -3 18 -9 15 -13z m-95 -5 c-7 -9 -15 -13 -17
-11 -7 7 7 26 19 26 6 0 6 -6 -2 -15z m25 -15 c-3 -5 -10 -10 -16 -10 -5 0 -9
5 -9 10 0 6 7 10 16 10 8 0 12 -4 9 -10z m15 -20 c0 -5 -5 -10 -11 -10 -5 0
-7 5 -4 10 3 6 8 10 11 10 2 0 4 -4 4 -10z m27 -26 c-3 -3 -12 -4 -19 -1 -8 3
-5 6 6 6 11 1 17 -2 13 -5z m40 0 c-3 -3 -12 -4 -19 -1 -8 3 -5 6 6 6 11 1 17
-2 13 -5z"/>
<path d="M9430 9328 c0 -4 41 -8 92 -8 50 0 89 2 87 4 -8 8 -179 12 -179 4z"/>
<path d="M9638 9313 c7 -3 16 -2 19 1 4 3 -2 6 -13 5 -11 0 -14 -3 -6 -6z"/>
<path d="M9690 9312 c0 -5 30 -12 68 -16 37 -4 83 -9 102 -13 19 -3 32 -3 29
1 -4 4 -35 11 -70 16 -35 6 -79 12 -96 15 -18 3 -33 2 -33 -3z"/>
<path d="M9120 9276 c0 -2 8 -10 18 -17 15 -13 16 -12 3 4 -13 16 -21 21 -21
13z"/>
<path d="M10015 9256 c22 -7 56 -16 75 -19 33 -6 33 -6 -5 7 -22 7 -56 16 -75
19 -33 6 -33 6 5 -7z"/>
<path d="M9030 9240 c0 -5 5 -10 11 -10 5 0 7 5 4 10 -3 6 -8 10 -11 10 -2 0
-4 -4 -4 -10z"/>
<path d="M10165 9215 c22 -8 45 -14 50 -14 18 1 -49 28 -70 28 -11 0 -2 -6 20
-14z"/>
<path d="M9066 9202 c-3 -5 1 -9 9 -9 8 0 12 4 9 9 -3 4 -7 8 -9 8 -2 0 -6 -4
-9 -8z"/>
<path d="M10230 9203 c0 -5 14 -14 31 -20 19 -7 29 -8 27 -2 -2 6 -8 11 -13
11 -6 0 -18 4 -27 9 -10 5 -18 6 -18 2z"/>
<path d="M10330 9166 c14 -8 27 -12 29 -10 6 6 -1 11 -29 18 l-25 7 25 -15z"/>
<path d="M10390 9146 c0 -2 7 -7 16 -10 8 -3 12 -2 9 4 -6 10 -25 14 -25 6z"/>
<path d="M9005 9110 c10 -11 20 -20 23 -20 3 0 -3 9 -13 20 -10 11 -20 20 -23
20 -3 0 3 -9 13 -20z"/>
<path d="M8971 9104 c0 -11 3 -14 6 -6 3 7 2 16 -1 19 -3 4 -6 -2 -5 -13z"/>
<path d="M8850 9060 c0 -5 5 -10 11 -10 5 0 7 -4 4 -10 -3 -5 0 -10 7 -10 11
0 11 -2 0 -9 -10 -6 -9 -11 4 -22 12 -9 15 -10 10 -1 -4 7 -2 12 4 12 7 0 4
12 -7 30 -17 30 -33 39 -33 20z"/>
<path d="M8970 9060 c-13 -8 -12 -10 3 -10 9 0 17 5 17 10 0 12 -1 12 -20 0z"/>
<path d="M8896 9054 c6 -3 10 -19 8 -37 l-3 -32 13 25 c15 26 6 51 -18 49 -8
0 -8 -2 0 -5z"/>
<path d="M8770 9020 c0 -5 5 -10 10 -10 6 0 10 5 10 10 0 6 -4 10 -10 10 -5 0
-10 -4 -10 -10z"/>
<path d="M8940 9016 c0 -2 8 -10 18 -17 15 -13 16 -12 3 4 -13 16 -21 21 -21
13z"/>
<path d="M8840 9005 c0 -18 19 -40 26 -32 4 4 0 15 -9 24 -9 10 -17 13 -17 8z"/>
<path d="M8935 8977 c-6 -15 -10 -16 -16 -5 -7 10 -11 10 -21 -2 -7 -8 -9 -11
-4 -7 5 4 15 2 23 -5 17 -14 38 3 30 24 -3 9 -7 8 -12 -5z"/>
<path d="M8952 8930 c-10 -17 -10 -20 4 -20 9 0 12 5 8 12 -5 8 -2 9 11 4 15
-5 16 -4 5 9 -15 18 -13 19 -28 -5z"/>
<path d="M9090 8906 c7 -7 14 -6 21 1 9 9 7 12 -9 10 -14 -1 -18 -5 -12 -11z"/>
<path d="M8916 8893 c-6 -14 -5 -15 5 -6 7 7 10 15 7 18 -3 3 -9 -2 -12 -12z"/>
<path d="M9021 8894 c0 -11 3 -14 6 -6 3 7 2 16 -1 19 -3 4 -6 -2 -5 -13z"/>
<path d="M9140 8903 c1 -11 40 -57 44 -52 3 2 -7 17 -20 32 -13 15 -24 24 -24
20z"/>
<path d="M9061 8866 c-7 -8 -8 -17 -3 -20 6 -3 12 3 15 14 6 24 4 25 -12 6z"/>
<path d="M8932 8858 c-7 -7 -12 -16 -12 -21 0 -5 7 -1 16 8 9 9 14 18 12 20
-2 3 -10 -1 -16 -7z"/>
<path d="M8984 8843 c4 -8 2 -13 -4 -13 -6 0 -8 -5 -4 -11 5 -8 9 -8 14 1 4 6
11 11 16 10 5 -1 9 3 11 10 1 7 0 7 -4 0 -3 -7 -10 -7 -21 2 -12 10 -14 10 -8
1z"/>
<path d="M9121 8824 c0 -11 3 -14 6 -6 3 7 2 16 -1 19 -3 4 -6 -2 -5 -13z"/>
<path d="M9168 8828 c-9 -5 -6 -7 9 -5 12 2 25 6 28 8 8 9 -23 6 -37 -3z"/>
<path d="M9094 8815 c7 -18 -5 -20 -23 -2 -11 10 -13 10 -7 0 4 -8 2 -13 -5
-13 -15 0 -2 -15 14 -15 7 -1 11 -6 10 -13 -2 -6 4 -9 13 -5 13 5 13 7 2 14
-10 7 -8 9 6 9 14 0 16 3 7 13 -6 8 -8 17 -4 20 3 4 1 7 -6 7 -8 0 -11 -7 -7
-15z"/>
<path d="M8945 8800 c3 -5 8 -10 11 -10 2 0 4 5 4 10 0 6 -5 10 -11 10 -5 0
-7 -4 -4 -10z"/>
<path d="M8910 8740 c-13 -8 -12 -10 3 -10 9 0 17 5 17 10 0 12 -1 12 -20 0z"/>
<path d="M9160 8696 c0 -12 7 -31 16 -42 15 -18 15 -18 10 5 -3 14 -1 30 5 37
6 8 3 13 -11 17 -16 4 -20 0 -20 -17z"/>
<path d="M9066 8678 c3 -4 11 -5 19 -1 21 7 19 12 -4 10 -11 0 -18 -5 -15 -9z"/>
<path d="M9216 8661 c-3 -5 1 -12 10 -15 22 -8 25 -4 9 11 -8 7 -16 9 -19 4z"/>
<path d="M9720 8590 c0 -6 7 -10 15 -10 8 0 15 2 15 4 0 2 -7 6 -15 10 -8 3
-15 1 -15 -4z"/>
<path d="M9778 8573 c6 -2 18 -2 25 0 6 3 1 5 -13 5 -14 0 -19 -2 -12 -5z"/>
<path d="M9828 8563 c7 -3 16 -2 19 1 4 3 -2 6 -13 5 -11 0 -14 -3 -6 -6z"/>
<path d="M9860 8556 c0 -2 9 -6 20 -9 11 -3 18 -1 14 4 -5 9 -34 13 -34 5z"/>
<path d="M10000 8517 c0 -3 51 -25 114 -51 63 -25 129 -54 148 -66 18 -11 37
-20 43 -20 20 0 -62 47 -130 74 -38 16 -83 34 -100 41 -41 17 -75 27 -75 22z"/>
<path d="M10325 8370 c3 -5 8 -10 11 -10 2 0 4 5 4 10 0 6 -5 10 -11 10 -5 0
-7 -4 -4 -10z"/>
<path d="M10355 8350 c3 -5 11 -10 16 -10 6 0 7 5 4 10 -3 6 -11 10 -16 10 -6
0 -7 -4 -4 -10z"/>
<path d="M8639 8222 l-46 -3 -6 -157 c-9 -242 -45 -422 -128 -640 -141 -370
-366 -673 -688 -927 -306 -241 -670 -389 -1071 -436 -63 -7 -495 -12 -1275
-14 -712 -2 -1220 -8 -1280 -14 -275 -28 -574 -114 -822 -235 -186 -92 -255
-134 -420 -257 -435 -326 -764 -822 -894 -1349 -72 -289 -72 -282 -76 -1108
l-4 -742 373 2 373 3 6 725 c6 813 5 794 85 1027 84 245 171 406 307 569 264
317 594 516 1017 612 l115 26 1285 6 c1141 6 1299 8 1410 24 625 86 1157 354
1621 816 286 285 489 596 623 953 42 112 110 341 126 424 38 199 70 481 70
619 l0 73 -52 6 c-50 6 -547 4 -649 -3z"/>
<path d="M11627 8135 c3 -11 9 -22 13 -25 13 -10 55 -85 52 -93 -1 -5 2 -6 8
-2 11 7 -19 66 -57 113 -17 20 -21 22 -16 7z"/>
<path d="M10766 8029 c109 -112 169 -184 203 -239 11 -19 21 -29 21 -22 0 16
-20 52 -41 72 -9 8 -36 40 -60 70 -43 52 -174 187 -208 212 -9 6 29 -35 85
-93z"/>
<path d="M11712 8005 c13 -36 44 -95 51 -95 4 0 -2 17 -12 38 -21 38 -45 74
-39 57z"/>
<path d="M11795 7850 c14 -27 28 -50 30 -50 3 0 -6 23 -20 50 -14 28 -28 50
-30 50 -3 0 6 -22 20 -50z"/>
<path d="M11000 7742 c0 -12 19 -26 26 -19 2 2 -2 10 -11 17 -9 8 -15 8 -15 2z"/>
<path d="M11020 7706 c0 -2 7 -9 15 -16 13 -11 14 -10 9 4 -5 14 -24 23 -24
12z"/>
<path d="M11910 7586 c0 -3 5 -17 10 -32 6 -15 13 -43 16 -63 3 -20 12 -47 20
-61 11 -19 14 -20 10 -5 -10 47 -47 165 -51 165 -3 0 -5 -2 -5 -4z"/>
<path d="M11110 7561 c0 -6 4 -13 10 -16 6 -3 7 1 4 9 -7 18 -14 21 -14 7z"/>
<path d="M11130 7524 c0 -6 7 -19 16 -30 14 -18 14 -18 3 6 -14 31 -19 36 -19
24z"/>
<path d="M11161 7454 c0 -11 3 -14 6 -6 3 7 2 16 -1 19 -3 4 -6 -2 -5 -13z"/>
<path d="M11181 7420 c0 -8 6 -28 14 -45 17 -39 18 -21 0 25 -7 19 -14 28 -14
20z"/>
<path d="M11991 7304 c0 -11 3 -14 6 -6 3 7 2 16 -1 19 -3 4 -6 -2 -5 -13z"/>
<path d="M12039 7042 c5 -34 6 -35 9 -8 2 16 0 32 -5 37 -5 5 -7 -7 -4 -29z"/>
<path d="M11300 6980 c0 -11 4 -20 9 -20 5 0 7 9 4 20 -3 11 -7 20 -9 20 -2 0
-4 -9 -4 -20z"/>
<path d="M12052 6980 c0 -14 2 -19 5 -12 2 6 2 18 0 25 -3 6 -5 1 -5 -13z"/>
<path d="M11318 6880 c13 -142 5 -491 -12 -519 -2 -3 -7 -24 -10 -46 -19 -116
-113 -386 -173 -495 -170 -306 -320 -488 -548 -666 -188 -146 -410 -255 -665
-329 -214 -62 -271 -67 -722 -72 l-408 -5 -50 56 c-86 93 -246 179 -370 196
-116 17 -284 -13 -379 -67 -142 -81 -253 -208 -301 -346 -31 -86 -38 -265 -16
-361 74 -316 395 -509 742 -445 132 24 275 103 348 193 l36 43 423 6 c436 7
446 7 611 33 421 64 840 241 1181 497 488 367 826 865 981 1446 14 51 23 95
21 97 -2 2 -15 -32 -28 -75 -19 -63 -28 -80 -41 -77 -10 1 -21 6 -25 11 -5 4
-2 5 5 1 8 -5 12 0 12 15 0 22 0 22 -14 4 -10 -14 -11 -25 -5 -38 6 -9 6 -17
2 -16 -23 4 -31 -3 -26 -22 4 -14 9 -17 16 -10 6 6 17 11 24 11 11 0 11 -4 2
-22 -7 -13 -11 -24 -10 -26 2 -1 -7 -33 -18 -70 -21 -68 -41 -108 -41 -84 0
22 -20 13 -21 -10 0 -22 -1 -22 -9 -3 -13 30 -12 47 3 39 7 -5 6 -1 -3 10 -13
17 -15 16 -24 -15 -6 -21 -11 -28 -13 -18 -2 9 -14 21 -27 27 -21 9 -23 8 -19
-11 4 -19 3 -20 -9 -6 -7 9 -20 15 -28 13 -8 -2 -26 -5 -38 -8 -20 -4 -22 -3
-12 9 7 8 18 15 26 15 7 0 15 4 18 9 12 18 -46 -3 -59 -22 -8 -12 -15 -16 -15
-9 0 7 -4 10 -10 7 -5 -3 -10 -2 -10 4 0 5 9 13 20 16 22 7 27 25 8 26 -7 0
-2 5 12 11 14 6 28 10 33 10 11 -3 8 5 -9 18 -12 11 -15 11 -12 0 2 -7 -3 -15
-11 -18 -9 -3 -11 0 -6 8 5 8 4 11 -3 6 -6 -3 -17 0 -25 9 -13 13 -16 13 -21
0 -6 -17 -26 -20 -26 -4 0 5 6 7 13 3 10 -6 10 -4 0 7 -7 7 -13 16 -13 21 0 4
6 6 13 4 6 -1 9 -1 4 1 -4 3 -5 9 -1 14 3 5 0 9 -6 9 -6 0 -9 4 -6 8 2 4 0 14
-6 22 -7 11 -8 7 -4 -16 5 -34 -15 -76 -28 -55 -4 6 0 14 8 17 9 3 16 10 16
15 0 4 -7 6 -15 3 -8 -4 -15 -1 -15 6 0 6 5 8 10 5 6 -3 10 -2 10 4 0 5 -5 13
-11 16 -6 4 -7 19 -4 36 4 19 3 29 -5 29 -6 0 -8 -4 -5 -10 3 -5 1 -10 -5 -10
-6 0 -9 -4 -6 -8 3 -5 -1 -9 -8 -9 -7 0 -12 10 -12 21 1 12 7 20 14 19 7 -2
12 2 12 9 0 6 10 3 22 -8 21 -19 21 -19 14 1 -6 18 -5 17 15 -4 18 -19 19 -25
8 -33 -11 -8 -10 -8 4 -4 10 3 21 6 24 6 3 0 -1 7 -8 17 -11 13 -11 17 -1 20
20 7 13 23 -10 23 -19 0 -20 2 -8 11 12 9 11 10 -6 6 -25 -5 -49 7 -49 25 -1
14 14 28 30 28 6 0 3 -5 -5 -10 -9 -6 -10 -10 -3 -10 6 0 18 -3 26 -6 10 -3
15 0 13 8 -4 28 -18 37 -53 35 -31 -2 -37 1 -38 20 -2 29 -45 67 -59 53 -5 -5
-17 -10 -25 -10 -13 0 -13 2 0 13 8 6 12 11 10 10 -10 -6 -29 20 -24 33 5 13
9 12 27 -3 l21 -18 -19 23 c-11 12 -26 20 -34 17 -8 -3 -21 0 -28 6 -8 6 -20
9 -29 5 -8 -3 -14 -2 -14 2 1 4 1 14 0 22 -1 13 -3 13 -10 0 -6 -8 -7 -18 -5
-22 3 -4 0 -8 -6 -8 -6 0 -9 8 -6 18 2 9 8 32 11 50 5 23 11 32 21 28 8 -3 14
-1 14 4 0 6 -5 10 -11 10 -8 0 -10 19 -5 65 8 78 14 97 30 88 8 -5 8 -3 0 8
-7 9 -14 86 -17 204 -3 105 -10 206 -16 225 -7 27 -8 17 -3 -40z m106 -765
c-7 -18 17 -20 34 -3 15 15 26 4 18 -19 -9 -22 -7 -29 5 -25 15 4 10 -15 -8
-34 -17 -16 -18 -16 -21 -1 -2 9 -8 17 -14 17 -6 0 -8 -10 -4 -23 4 -16 1 -24
-8 -24 -8 0 -12 6 -8 15 4 11 1 14 -11 9 -9 -3 -16 -3 -16 1 5 30 -3 43 -23
40 -13 -2 -23 -8 -23 -15 0 -21 -12 -24 -18 -3 -3 13 0 20 9 20 17 0 18 12 2
29 -11 10 -10 11 5 6 9 -4 17 -11 17 -16 0 -5 4 -9 10 -9 5 0 7 7 3 16 -5 13
-2 15 14 10 14 -4 23 -1 27 9 3 8 8 15 10 15 3 0 3 -7 0 -15z m-159 -55 c3 -5
1 -10 -4 -10 -6 0 -11 5 -11 10 0 6 2 10 4 10 3 0 8 -4 11 -10z m49 -8 c3 -5
-1 -9 -9 -9 -8 0 -12 4 -9 9 3 4 7 8 9 8 2 0 6 -4 9 -8z m66 -17 c0 -2 -7 -8
-15 -15 -12 -10 -15 -10 -15 2 0 8 7 15 15 15 8 0 15 -1 15 -2z m137 -39 c-5
-14 -27 -20 -27 -6 0 6 5 8 10 5 6 -3 10 -2 10 4 0 5 -4 13 -10 16 -5 3 -10
12 -10 18 0 7 7 3 15 -8 9 -10 14 -24 12 -29z m-227 20 c0 -3 -4 -8 -10 -11
-5 -3 -10 -1 -10 4 0 6 5 11 10 11 6 0 10 -2 10 -4z m97 -28 c2 -17 0 -19 -7
-8 -5 8 -6 18 -4 22 8 12 10 10 11 -14z m-140 -30 c-3 -7 -5 -2 -5 12 0 14 2
19 5 13 2 -7 2 -19 0 -25z m-22 2 c3 -5 1 -10 -4 -10 -6 0 -11 5 -11 10 0 6 2
10 4 10 3 0 8 -4 11 -10z m725 -40 c0 -5 -4 -10 -10 -10 -5 0 -10 5 -10 10 0
6 5 10 10 10 6 0 10 -4 10 -10z m-430 -30 c0 -5 -5 -10 -11 -10 -5 0 -7 5 -4
10 3 6 8 10 11 10 2 0 4 -4 4 -10z m37 -97 c0 -10 -4 -23 -9 -30 -5 -7 -7 -17
-3 -23 3 -5 1 -10 -4 -10 -15 0 -14 23 2 39 10 11 9 14 -2 18 -11 5 -11 7 0
14 8 5 14 9 15 9 0 0 1 -8 1 -17z m68 -1 c-3 -3 -11 0 -18 7 -9 10 -8 11 6 5
10 -3 15 -9 12 -12z m-15 -27 c14 -19 14 -19 -2 -6 -10 7 -18 18 -18 24 0 6 1
8 3 6 1 -2 9 -13 17 -24z m-11 -42 c0 -16 -3 -22 -6 -15 -2 6 -9 9 -15 6 -5
-3 -4 3 4 15 17 27 18 27 17 -6z m109 -68 c-3 -3 -9 2 -12 12 -6 14 -5 15 5 6
7 -7 10 -15 7 -18z m96 -19 c2 -20 -1 -36 -5 -36 -5 0 -9 7 -9 15 0 8 -4 15
-9 15 -6 0 -9 9 -8 19 0 11 5 17 9 15 4 -3 8 0 8 7 0 27 12 -2 14 -35z m-14
-58 c0 -19 -16 -5 -17 14 -2 18 0 20 7 8 5 -8 10 -18 10 -22z m-314 -25 c-4
-4 -12 -1 -19 7 -9 10 -9 11 1 6 7 -4 12 -2 13 6 0 11 2 11 6 0 3 -7 2 -16 -1
-19z m144 17 c0 -5 -2 -10 -4 -10 -3 0 -8 5 -11 10 -3 6 -1 10 4 10 6 0 11 -4
11 -10z m190 -10 c0 -5 -5 -10 -11 -10 -5 0 -7 5 -4 10 3 6 8 10 11 10 2 0 4
-4 4 -10z m-60 -39 c0 -6 -4 -13 -10 -16 -5 -3 -10 1 -10 9 0 9 5 16 10 16 6
0 10 -4 10 -9z m40 -1 c0 -5 -2 -10 -4 -10 -3 0 -8 5 -11 10 -3 6 -1 10 4 10
6 0 11 -4 11 -10z m-242 -25 c-3 -3 -9 2 -12 12 -6 14 -5 15 5 6 7 -7 10 -15
7 -18z m129 -35 c1 -10 -2 -22 -7 -25 -6 -3 -10 -11 -10 -16 0 -6 5 -7 12 -3
6 4 8 3 4 -4 -3 -6 -2 -14 4 -17 6 -4 10 -3 9 2 -4 24 3 43 17 43 8 0 13 -4 9
-9 -3 -5 -1 -12 4 -15 5 -4 12 7 16 24 4 17 11 28 16 25 9 -6 -26 -85 -43 -96
-5 -3 -9 -10 -8 -15 1 -5 -4 -10 -11 -13 -8 -2 -10 2 -6 13 8 20 -14 46 -37
46 -8 0 -18 4 -21 10 -3 6 1 7 9 4 12 -4 16 1 18 17 0 13 2 29 3 34 2 6 3 14
4 19 2 15 15 -3 18 -24z m-37 -18 c0 -5 -7 -9 -15 -9 -8 0 -12 4 -9 9 3 4 9 8
15 8 5 0 9 -4 9 -8z m32 -79 c-10 -4 -10 -9 2 -22 15 -16 14 -19 -5 -37 -22
-19 -22 -19 -11 2 7 12 7 26 1 35 -13 21 -11 29 9 28 11 0 12 -2 4 -6z m-47
-122 c3 -5 2 -12 -3 -15 -5 -3 -9 1 -9 9 0 17 3 19 12 6z"/>
<path d="M11452 6098 c-17 -17 -15 -33 5 -49 15 -13 15 -12 5 7 -8 15 -8 24 0
32 7 7 9 14 7 17 -3 2 -11 -1 -17 -7z"/>
<path d="M11380 6097 c0 -7 37 -47 44 -47 3 0 6 10 6 22 0 12 -3 18 -6 15 -4
-3 -15 -2 -25 4 -11 5 -19 8 -19 6z"/>
<path d="M12063 6885 c0 -27 2 -38 4 -22 2 15 2 37 0 50 -2 12 -4 0 -4 -28z"/>
<path d="M12065 6821 c-3 -5 -1 -12 5 -16 5 -3 10 1 10 9 0 18 -6 21 -15 7z"/>
<path d="M12074 6690 c0 -58 1 -81 3 -52 2 28 2 76 0 105 -2 28 -3 5 -3 -53z"/>
<path d="M11391 6741 c-9 -6 -10 -11 -2 -15 6 -4 8 -13 5 -19 -4 -7 -3 -9 1
-4 7 5 16 48 11 47 -1 0 -7 -4 -15 -9z"/>
<path d="M11386 6614 c-5 -14 -4 -15 9 -4 17 14 19 20 6 20 -5 0 -12 -7 -15
-16z"/>
<path d="M12065 6570 c-3 -5 -1 -10 4 -10 6 0 11 5 11 10 0 6 -2 10 -4 10 -3
0 -8 -4 -11 -10z"/>
<path d="M12060 6520 c0 -11 2 -20 4 -20 2 0 6 9 9 20 3 11 1 20 -4 20 -5 0
-9 -9 -9 -20z"/>
<path d="M20493 6409 c-330 -37 -625 -165 -829 -361 -194 -186 -305 -386 -365
-658 -20 -89 -23 -131 -23 -280 2 -189 19 -292 79 -460 222 -620 908 -960
1635 -810 268 56 541 197 696 361 l51 54 -1 495 -1 495 -563 3 -563 2 2 -200
c2 -196 2 -200 23 -201 12 0 143 -1 291 -2 l270 -2 3 -197 2 -198 -55 -36
c-90 -57 -172 -92 -272 -115 -78 -18 -113 -21 -235 -17 -128 5 -153 9 -233 37
-291 102 -464 282 -537 561 -32 124 -32 347 1 475 44 170 116 294 223 387 267
232 624 275 943 115 90 -45 117 -64 229 -159 43 -38 83 -68 89 -68 5 0 31 17
56 38 69 56 296 264 300 274 6 18 -184 194 -273 252 -153 101 -301 157 -509
196 -126 23 -324 32 -434 19z"/>
<path d="M12049 6393 c0 -10 -4 -44 -8 -76 -4 -31 -4 -54 0 -50 10 10 23 143
15 143 -3 0 -6 -8 -7 -17z"/>
<path d="M15493 6364 c-2 -6 -3 -573 -1 -1260 l3 -1249 575 -3 c633 -3 756 4
925 53 331 96 572 266 739 520 95 145 151 287 182 469 25 140 15 417 -19 551
-61 237 -157 406 -323 565 -179 172 -379 275 -640 329 -150 31 -212 33 -848
35 -427 1 -590 -2 -593 -10z m1255 -460 c282 -58 486 -232 571 -488 57 -174
63 -331 20 -521 -73 -318 -331 -539 -669 -574 -47 -5 -205 -9 -352 -10 l-268
-2 0 806 0 805 310 0 c245 0 327 -3 388 -16z"/>
<path d="M18463 6372 l-143 -3 0 -724 c0 -399 0 -887 0 -1085 0 -198 0 -439 0
-535 l0 -175 275 0 275 0 -2 1263 -3 1262 -130 0 c-71 0 -194 -1 -272 -3z"/>
<path d="M22199 6377 c-3 -5 -4 -2373 -1 -2444 l4 -83 274 0 274 0 0 1260 c0
1002 -3 1260 -12 1260 -7 -1 -131 1 -275 4 -145 3 -263 4 -264 3z"/>
<path d="M23064 6365 c-2 -5 -3 -107 -1 -225 l2 -215 403 -3 402 -2 0 -1035 0
-1035 275 0 275 0 0 1035 0 1035 415 0 415 0 0 225 0 225 -162 1 c-738 7
-2021 3 -2024 -6z"/>
<path d="M26158 6372 l-106 -3 -32 -77 c-18 -42 -42 -102 -55 -132 -52 -121
-313 -753 -432 -1044 -24 -60 -58 -138 -74 -175 -17 -36 -60 -139 -95 -229
-36 -89 -78 -190 -94 -225 -56 -123 -260 -615 -260 -629 0 -5 129 -7 287 -6
l286 3 52 125 c28 69 76 191 106 272 50 134 56 147 81 150 41 7 1099 1 1105
-6 3 -3 54 -126 112 -273 l107 -268 297 -3 c163 -1 297 -1 297 1 0 3 -13 34
-30 70 -16 36 -72 166 -124 289 -52 123 -142 336 -200 473 -59 138 -184 435
-277 660 -280 671 -430 1019 -442 1027 -11 7 -263 7 -509 0z m229 -594 c45
-119 200 -517 279 -716 46 -116 84 -214 84 -217 0 -3 -174 -5 -386 -5 l-386 0
7 28 c6 27 75 207 198 522 36 91 89 227 118 302 30 76 57 138 60 138 3 0 15
-24 26 -52z"/>
<path d="M28003 6373 c-10 -4 -13 -266 -13 -1264 l0 -1259 915 0 915 0 0 230
0 230 -640 0 -640 0 -2 1031 -3 1030 -260 4 c-143 1 -266 1 -272 -2z"/>
<path d="M11375 6340 c21 -24 26 -25 19 -6 -3 8 -13 17 -22 21 -13 5 -13 2 3
-15z"/>
<path d="M11507 6119 c4 -13 8 -18 11 -10 2 7 -1 18 -6 23 -8 8 -9 4 -5 -13z"/>
<path d="M11618 6073 c-9 -2 -16 -13 -15 -24 1 -19 22 -22 22 -3 0 5 4 15 8
22 5 6 7 11 5 11 -2 -1 -11 -3 -20 -6z"/>
<path d="M11545 6020 c3 -5 8 -10 11 -10 2 0 4 5 4 10 0 6 -5 10 -11 10 -5 0
-7 -4 -4 -10z"/>
<path d="M11610 6010 c-13 -9 -13 -10 0 -11 8 -1 18 -1 23 0 4 0 7 -7 7 -17 0
-10 7 -19 15 -19 8 0 15 4 15 9 0 5 5 6 10 3 17 -10 11 12 -7 26 -11 10 -14
10 -9 2 10 -17 -4 -16 -23 1 -11 10 -21 12 -31 6z"/>
<path d="M11782 5991 c-11 -6 -10 -10 0 -19 11 -8 14 -7 14 9 0 10 0 19 -1 19
0 0 -6 -4 -13 -9z"/>
<path d="M11890 5980 c-13 -8 -12 -10 3 -10 9 0 17 5 17 10 0 12 -1 12 -20 0z"/>
<path d="M11834 5963 c5 -8 4 -19 -4 -28 -9 -10 -9 -15 -1 -15 6 0 11 -8 12
-17 0 -14 2 -13 9 5 5 12 12 22 14 22 3 0 2 -8 -1 -17 -5 -14 -3 -13 14 3 22
21 21 36 -2 27 -8 -3 -23 3 -33 14 -9 10 -13 13 -8 6z"/>
<path d="M11778 5926 c-3 -16 -1 -23 7 -19 7 2 11 13 8 24 -7 25 -10 24 -15
-5z"/>
<path d="M11545 5919 c-4 -6 -5 -12 -2 -15 2 -3 7 2 10 11 7 17 1 20 -8 4z"/>
<path d="M11720 5900 c0 -5 5 -10 11 -10 5 0 7 5 4 10 -3 6 -8 10 -11 10 -2 0
-4 -4 -4 -10z"/>
<path d="M11633 5835 c0 -8 4 -12 9 -9 5 3 6 10 3 15 -9 13 -12 11 -12 -6z"/>
<path d="M11764 5786 c1 -35 3 -40 12 -28 8 11 9 24 2 44 -6 15 -11 28 -12 28
-1 0 -2 -20 -2 -44z"/>
<path d="M11856 5745 c-3 -8 -1 -15 3 -15 5 0 11 7 15 15 3 8 1 15 -3 15 -5 0
-11 -7 -15 -15z"/>
<path d="M4246 4948 c-104 -12 -210 -42 -314 -87 -89 -38 -226 -123 -284 -175
l-28 -25 0 -1162 0 -1161 383 5 c210 3 383 6 384 6 2 1 3 588 3 1306 l0 1306
-38 -3 c-20 -1 -68 -6 -106 -10z"/>
<path d="M25948 3036 c-84 -31 -129 -85 -150 -178 -15 -69 -15 -292 0 -343 29
-100 99 -162 198 -173 106 -12 201 56 223 159 15 70 16 69 -34 69 -41 0 -45
-2 -45 -25 0 -38 -25 -90 -51 -109 -14 -10 -44 -16 -75 -16 -99 0 -132 55
-142 236 -10 205 31 302 135 311 47 5 54 3 87 -28 27 -25 38 -46 44 -79 7 -43
8 -44 50 -47 41 -3 42 -2 42 30 0 35 -32 111 -58 140 -47 52 -157 78 -224 53z"/>
<path d="M15668 3032 l-138 -3 0 -339 0 -340 45 0 45 0 0 150 0 150 113 0 c63
0 116 2 119 5 2 3 3 18 0 35 l-4 30 -114 0 -114 0 0 120 0 120 135 0 135 0 0
35 c0 29 -4 35 -22 36 -13 0 -32 1 -43 2 -11 1 -82 1 -157 -1z"/>
<path d="M15980 2768 c0 -304 5 -326 69 -381 110 -92 304 -42 340 88 7 24 11
140 11 297 l0 257 -35 7 c-20 3 -38 4 -41 1 -3 -3 -7 -126 -8 -274 -1 -188 -5
-275 -14 -290 -21 -37 -53 -53 -110 -53 -118 0 -123 13 -125 348 l-2 267 -42
3 -43 3 0 -273z"/>
<path d="M16980 2695 l0 -345 180 0 180 0 0 40 0 40 -135 -5 -135 -4 0 309 0
310 -45 0 -45 0 0 -345z"/>
<path d="M17535 3026 c-66 -30 -105 -92 -105 -166 0 -91 52 -148 181 -201 121
-48 155 -95 128 -173 -18 -54 -67 -80 -130 -70 -57 9 -109 58 -109 103 0 30
-1 31 -45 31 -52 0 -57 -13 -29 -78 46 -112 187 -165 299 -113 75 35 105 85
105 177 0 97 -35 137 -172 195 -114 48 -138 72 -138 136 0 36 6 50 29 74 25
24 38 29 79 29 71 0 102 -30 114 -115 3 -16 12 -21 46 -23 l42 -3 0 36 c0 39
-27 100 -57 127 -50 46 -173 63 -238 34z"/>
<path d="M17900 3001 l0 -41 85 0 85 0 0 -305 0 -305 45 0 45 0 0 305 0 305
91 0 90 0 -3 37 -3 37 -217 4 -218 3 0 -40z"/>
<path d="M18507 2858 c-32 -101 -80 -253 -107 -338 -27 -85 -50 -158 -50 -162
0 -5 19 -8 43 -8 l43 0 27 90 28 91 116 -3 117 -3 26 -87 25 -88 44 0 c52 0
54 -22 -22 215 -31 94 -76 235 -100 314 -25 78 -48 146 -51 149 -4 3 -23 7
-44 9 l-38 4 -57 -183z m129 -49 c14 -52 31 -107 39 -124 7 -16 15 -41 17 -55
3 -24 3 -24 -84 -25 -65 0 -88 3 -88 13 0 10 35 135 76 275 8 27 12 19 40 -84z"/>
<path d="M19070 3029 c-52 -21 -100 -81 -122 -152 -17 -58 -20 -88 -17 -211 4
-136 6 -146 34 -202 53 -103 159 -147 276 -114 65 18 117 90 133 183 l7 37
-45 0 c-44 0 -45 -1 -52 -37 -9 -52 -30 -90 -56 -104 -31 -17 -98 -15 -134 4
-55 29 -68 73 -72 245 -4 149 -3 155 23 208 30 61 63 84 122 84 64 0 102 -38
112 -115 6 -40 6 -40 51 -40 l45 0 -3 35 c-8 77 -57 150 -119 176 -37 16 -146
18 -183 3z"/>
<path d="M19486 3032 c-3 -2 -5 -157 -5 -343 l-1 -339 45 0 45 0 0 113 c0 111
1 114 31 155 17 23 34 40 38 37 5 -2 50 -72 101 -155 l93 -150 49 0 c26 0 48
3 48 6 0 3 -52 87 -115 186 -63 99 -115 184 -115 190 0 11 107 159 172 239 21
26 38 52 38 58 0 6 -18 11 -44 11 -52 0 -45 6 -186 -188 -52 -72 -98 -131
-102 -132 -5 0 -8 72 -8 160 l0 160 -40 -2 c-22 -1 -42 -3 -44 -6z"/>
<path d="M20310 3018 c-78 -40 -113 -122 -90 -209 18 -66 77 -117 183 -158
102 -39 127 -64 127 -127 0 -34 -6 -51 -27 -74 -25 -27 -34 -31 -85 -31 -75
-1 -114 25 -129 87 -11 44 -12 44 -56 44 l-45 0 7 -37 c13 -74 70 -137 144
-162 70 -23 176 -6 223 36 31 27 58 93 58 143 0 99 -54 158 -184 202 -94 31
-136 71 -136 128 0 94 116 146 189 85 20 -17 33 -40 38 -67 8 -40 9 -41 48
-41 48 0 55 16 31 77 -20 51 -43 78 -87 105 -49 30 -149 29 -209 -1z"/>
<path d="M20845 3025 c-48 -26 -82 -64 -106 -119 -20 -43 -24 -73 -27 -182 -5
-157 8 -227 51 -291 38 -56 90 -85 162 -91 103 -8 188 46 225 145 17 46 21 78
21 194 0 194 -25 271 -103 326 -32 22 -53 27 -116 30 -58 3 -84 0 -107 -12z
m166 -78 c61 -40 73 -82 73 -247 0 -166 -10 -205 -60 -250 -46 -40 -117 -43
-162 -5 -51 43 -63 90 -63 248 0 129 2 145 25 191 42 85 117 110 187 63z"/>
<path d="M21333 3033 l-33 -4 0 -324 c0 -178 -3 -331 -6 -340 -6 -14 0 -16 41
-13 l47 3 1 145 2 145 118 3 117 3 0 37 0 38 -112 -1 -113 0 -3 118 -3 117
129 0 c71 0 131 2 133 5 3 2 3 20 1 40 l-4 35 -142 -2 c-77 0 -156 -3 -173 -5z"/>
<path d="M21720 2999 l0 -39 85 0 85 0 0 -305 0 -305 45 0 45 0 0 305 0 305
91 0 90 0 -3 38 -3 37 -217 2 -218 2 0 -40z"/>
<path d="M22216 3033 c-1 -2 10 -60 25 -130 15 -71 46 -213 69 -318 22 -104
43 -200 45 -213 5 -20 11 -23 47 -20 l42 3 55 252 c31 139 58 253 61 253 3 0
12 -35 21 -78 10 -42 28 -124 42 -182 14 -58 33 -138 42 -177 l17 -73 44 0
c24 0 44 2 44 3 0 2 29 151 65 331 36 180 65 332 65 339 0 7 -14 12 -37 11
-37 -1 -38 -3 -50 -50 -11 -44 -92 -452 -94 -471 0 -4 -13 53 -29 127 -15 74
-42 195 -60 268 l-32 132 -33 0 c-19 0 -36 -4 -39 -8 -3 -5 -15 -51 -26 -103
-12 -52 -28 -121 -36 -154 -8 -33 -23 -102 -34 -154 -11 -52 -22 -97 -25 -99
-5 -5 -1 -21 -56 268 -23 124 -44 231 -47 238 -4 11 -75 15 -86 5z"/>
<path d="M23162 3031 c-26 -7 -29 -15 -162 -430 -39 -123 -74 -230 -77 -238
-5 -11 4 -14 42 -11 l48 3 26 85 27 85 117 3 116 3 28 -91 27 -90 43 0 c40 0
43 2 38 23 -4 12 -53 166 -109 342 -110 341 -105 330 -164 316z m28 -144 c0
-7 20 -72 44 -145 l43 -132 -94 0 c-72 0 -94 3 -90 13 2 6 22 72 43 145 21 72
42 132 46 132 5 0 8 -6 8 -13z"/>
<path d="M23537 3034 c-4 -4 -7 -160 -7 -346 l0 -338 45 0 45 0 0 140 0 141
61 -3 62 -3 60 -137 60 -138 49 0 c36 0 49 3 45 13 -3 6 -33 72 -66 145 l-61
133 35 33 c46 43 65 92 65 164 0 81 -31 139 -90 169 -37 18 -68 24 -170 29
-69 3 -128 2 -133 -2z m247 -86 c73 -33 84 -159 20 -219 -22 -21 -35 -24 -102
-24 l-77 0 -3 128 -3 127 70 0 c39 0 81 -5 95 -12z"/>
<path d="M24063 3032 c-9 -6 -13 -95 -15 -345 l-3 -337 188 0 187 0 0 40 0 40
-145 0 -145 0 0 120 0 120 125 0 125 0 0 35 0 35 -125 0 -125 0 0 110 0 109
143 3 142 3 0 35 0 35 -170 2 c-93 2 -175 -1 -182 -5z"/>
<path d="M25290 2696 l0 -347 41 3 41 3 1 135 2 135 60 3 60 3 59 -137 c33
-75 65 -138 72 -141 6 -2 30 -3 51 -1 l40 3 -68 143 -68 143 33 30 c50 43 70
92 69 170 -1 71 -16 110 -55 146 -37 35 -71 43 -209 50 l-129 6 0 -347z m258
248 c75 -52 66 -191 -14 -229 -23 -11 -54 -15 -97 -13 l-62 3 -3 128 -3 127
78 0 c55 0 85 -5 101 -16z"/>
<path d="M26346 3031 c-3 -4 -5 -159 -5 -344 l1 -337 44 0 43 0 3 158 3 157
130 0 130 0 3 -157 3 -158 44 0 45 0 0 339 0 339 -41 4 c-22 2 -42 2 -45 -1
-2 -2 -4 -69 -4 -148 l0 -143 -135 0 -135 0 0 145 c0 109 -3 145 -12 146 -7 0
-25 2 -40 4 -15 2 -30 0 -32 -4z"/>
<path d="M26930 2696 l0 -346 45 0 45 0 -2 343 -3 342 -42 3 -43 3 0 -345z"/>
<path d="M27115 3032 c-3 -3 -5 -20 -5 -39 l0 -33 90 0 90 0 0 -305 0 -305 45
0 45 0 0 305 0 305 90 0 91 0 -4 38 -4 37 -216 1 c-119 1 -219 -1 -222 -4z"/>
<path d="M27693 3033 l-42 -4 1 -340 1 -339 189 0 189 0 -3 38 -3 37 -142 3
-143 3 0 119 0 120 125 0 125 0 0 35 0 35 -125 0 -125 0 0 110 0 110 141 0
140 0 -3 38 -3 37 -140 1 c-77 0 -159 -1 -182 -3z"/>
<path d="M28245 3024 c-95 -49 -135 -140 -135 -308 0 -161 31 -278 87 -328 80
-73 243 -60 306 23 19 26 57 122 57 146 0 2 -22 3 -50 3 -49 0 -50 -1 -50 -30
0 -39 -24 -86 -51 -101 -34 -18 -109 -13 -138 9 -56 41 -66 74 -69 234 -5 169
9 230 59 273 33 27 86 33 133 15 32 -12 62 -59 70 -111 6 -38 7 -39 47 -37
l41 1 -5 50 c-9 70 -47 130 -100 156 -53 26 -157 29 -202 5z"/>
<path d="M28620 3000 l0 -40 85 0 85 0 0 -305 0 -305 45 0 45 0 0 305 0 305
91 0 90 0 -3 38 -3 37 -217 3 -218 2 0 -40z"/>
<path d="M29187 3032 l-38 -3 3 -284 3 -283 31 -39 c96 -120 306 -108 365 21
17 37 19 69 19 316 l0 275 -42 -1 -43 -1 -5 -283 -5 -282 -28 -24 c-36 -31
-93 -36 -150 -13 -53 22 -57 43 -57 333 0 146 -3 266 -7 268 -5 2 -25 2 -46 0z"/>
<path d="M29700 2696 l0 -346 45 0 45 0 0 140 0 140 58 0 58 0 61 -137 60
-138 51 -3 50 -3 -64 141 c-35 77 -64 145 -64 150 0 5 13 19 29 31 17 12 40
45 52 73 29 67 23 159 -14 215 -41 61 -81 75 -234 79 l-133 4 0 -346z m260
247 c36 -21 50 -52 50 -109 0 -94 -46 -134 -155 -134 l-65 0 0 130 0 130 71 0
c48 0 80 -5 99 -17z"/>
<path d="M30333 3032 l-113 -3 -1 -117 c0 -64 -2 -217 -5 -339 l-5 -223 190 0
191 0 0 40 0 40 -145 0 -145 0 0 120 0 120 125 0 125 0 0 35 0 35 -125 0 -125
0 0 110 0 110 140 0 140 0 0 40 0 41 -67 -3 c-38 -2 -119 -4 -180 -6z"/>
<path d="M16530 2690 l0 -340 175 0 175 0 0 35 c0 24 -5 35 -15 36 -8 1 -19 3
-25 4 -5 1 -57 3 -115 4 l-105 1 0 300 0 300 -45 0 -45 0 0 -340z"/>
<path d="M24888 2983 c-9 -27 -44 -136 -78 -243 -34 -107 -77 -239 -95 -292
l-34 -98 47 0 47 0 28 90 28 90 114 0 114 0 28 -90 28 -90 43 0 c23 0 42 2 42
5 0 6 -16 58 -146 463 l-68 212 -40 0 c-40 0 -42 -1 -58 -47z m96 -199 c19
-65 39 -131 45 -146 6 -15 7 -29 3 -30 -4 -2 -46 -2 -93 0 l-85 3 44 150 c25
82 47 147 49 145 2 -1 19 -57 37 -122z"/>
</g>
</svg>
