<svg xmlns="http://www.w3.org/2000/svg" viewBox="0 0 32 32" fill="none">
  <path d="M16 3C9.373 3 4 8.373 4 15c0 5.302 3.438 9.8 8.207 11.387-.113-.98-.215-2.487.045-3.556.236-.963 1.576-6.676 1.576-6.676s-.402-.806-.402-1.998c0-1.873 1.086-3.272 2.434-3.272 1.148 0 1.704.862 1.704 1.895 0 1.154-.735 2.883-1.115 4.485-.317 1.339.672 2.43 1.99 2.43 2.388 0 3.99-3.05 3.99-6.658 0-2.743-1.854-4.995-5.17-4.995-3.77 0-6.12 2.813-6.12 5.948 0 1.078.31 1.838.789 2.42.222.263.253.368.173.672-.057.222-.187.757-.242.968-.08.306-.32.416-.587.303-1.64-.67-2.403-2.468-2.403-4.488 0-3.32 2.787-7.26 8.348-7.26 4.47 0 7.407 3.237 7.407 6.713 0 4.586-2.543 8.006-6.3 8.006-1.257 0-2.44-.68-2.845-1.442l-.796 3.057c-.263 1-.934 2.25-1.426 3.07C14.6 28.933 15.29 29 16 29c7.18 0 13-5.82 13-13S23.18 3 16 3z" fill="#336791"/>
</svg>
